
                <svg xmlns="http://www.w3.org/2000/svg" xmlns:xlink="http://www.w3.org/1999/xlink" width="703" height="2756" shape-rendering="optimizeSpeed">
                
                <g>
                   <rect x="50" y="65" width="232.79999999999998" height="30" rx="3" ry="3" style="fill:#90caf9; stroke:#444; stroke-width:1"></rect>
                   <title>const url = require('url')</title>
            <text x="65" y="85" font-family="monospace" font-size="13" fill="#222">
                <tspan x="65" y="85">const url = require('url')</tspan>
            </text>
                   
                   
                </g>
                <g>
                   <rect x="50" y="113.5" width="248.4" height="30" rx="3" ry="3" style="fill:#90caf9; stroke:#444; stroke-width:1"></rect>
                   <title>const http = require('http')</title>
            <text x="65" y="133.5" font-family="monospace" font-size="13" fill="#222">
                <tspan x="65" y="133.5">const http = require('http')</tspan>
            </text>
                   
                   
                </g>
                <g>
                   <rect x="50" y="162" width="295.2" height="30" rx="3" ry="3" style="fill:#90caf9; stroke:#444; stroke-width:1"></rect>
                   <title>const methods = require('methods')</title>
            <text x="65" y="182" font-family="monospace" font-size="13" fill="#222">
                <tspan x="65" y="182">const methods = require('methods')</tspan>
            </text>
                   
                   
                </g>
            <g>
                <rect x="50" y="225.5" width="221.6" height="30" style="fill:#a5d6a7; stroke:#444; stroke-width:1"></rect>
                    
                <line x1="60" y1="225.5" x2="60" y2="255.5" style="fill:#a5d6a7; stroke:#444; stroke-width:1"></line>
                <line x1="261.6" y1="225.5" x2="261.6" y2="255.5" style="fill:#a5d6a7; stroke:#444; stroke-width:1"></line>
             
                <title>function application()</title>
            <text x="75" y="245.5" font-family="monospace" font-size="13" fill="#222">
                <tspan x="75" y="245.5">function application()</tspan>
            </text>
                
            </g>
            <g>
                <rect x="87" y="274" width="198.2" height="30" style="fill:#a5d6a7; stroke:#444; stroke-width:1"></rect>
                    
                <line x1="97" y1="274" x2="97" y2="304" style="fill:#a5d6a7; stroke:#444; stroke-width:1"></line>
                <line x1="275.2" y1="274" x2="275.2" y2="304" style="fill:#a5d6a7; stroke:#444; stroke-width:1"></line>
             
                <title>app = (req, res) =&gt;</title>
            <text x="112" y="294" font-family="monospace" font-size="13" fill="#222">
                <tspan x="112" y="294">app = (req, res) =&gt;</tspan>
            </text>
                
            </g>
                <g>
                   <rect x="124" y="322.5" width="264" height="30" rx="3" ry="3" style="fill:#90caf9; stroke:#444; stroke-width:1"></rect>
                   <title>let {...} = url.parse(req.url)</title>
            <text x="139" y="342.5" font-family="monospace" font-size="13" fill="#222">
                <tspan x="139" y="342.5">let {...} = url.parse(req.url)</tspan>
            </text>
                   
                   
                </g>
                <g>
                   <rect x="161" y="371" width="92.4" height="30" rx="2" ry="2" style="fill:#90caf9; stroke:#444; stroke-width:1"></rect>
                   <title>pathname</title>
            <text x="176" y="391" font-family="monospace" font-size="13" fill="#222">
                <tspan x="176" y="391">pathname</tspan>
            </text>
                   
                   
                </g>
                <g>
                   <rect x="124" y="419.5" width="373.2" height="30" rx="3" ry="3" style="fill:#90caf9; stroke:#444; stroke-width:1"></rect>
                   <title>let requestMethod = req.method.toLowerCase()</title>
            <text x="139" y="439.5" font-family="monospace" font-size="13" fill="#222">
                <tspan x="139" y="439.5">let requestMethod = req.method.toLowerCase()</tspan>
            </text>
                   
                   
                </g><g>

            <rect x="154" y="503" width="223.79999999999998" height="30" rx="3" ry="3" style="fill:#b39ddb; stroke:#444; stroke-width:1"></rect>
            <polygon points="124,518 154,488 184,518 154,548" style="fill:#b39ddb; stroke:#444; stroke-width:1"></polygon>
                
            <title>i &lt; app.routes.length</title>
            <text x="199" y="523" font-family="monospace" font-size="13" fill="#222">
                <tspan x="199" y="523">i &lt; app.routes.length</tspan>
            </text>
            
            <text x="142.3" y="523" font-family="monospace" font-size="13" fill="#222">for</text>
        </g>
                <g>
                   <rect x="174" y="558" width="53.4" height="30" rx="3" ry="3" style="fill:#90caf9; stroke:#444; stroke-width:1"></rect>
                   <title>i++</title>
            <text x="189" y="578" font-family="monospace" font-size="13" fill="#222">
                <tspan x="189" y="578">i++</tspan>
            </text>
                   
                   
                </g>
                <g>
                   <rect x="174" y="606.5" width="240.6" height="30" rx="3" ry="3" style="fill:#90caf9; stroke:#444; stroke-width:1"></rect>
                   <title>const layer = app.routes[i]</title>
            <text x="189" y="626.5" font-family="monospace" font-size="13" fill="#222">
                <tspan x="189" y="626.5">const layer = app.routes[i]</tspan>
            </text>
                   
                   
                </g>
                <g>
                   <rect x="174" y="655" width="178.2" height="30" rx="3" ry="3" style="fill:#90caf9; stroke:#444; stroke-width:1"></rect>
                   <title>const {...} = layer</title>
            <text x="189" y="675" font-family="monospace" font-size="13" fill="#222">
                <tspan x="189" y="675">const {...} = layer</tspan>
            </text>
                   
                   
                </g>
                <g>
                   <rect x="211" y="703.5" width="61.2" height="30" rx="2" ry="2" style="fill:#90caf9; stroke:#444; stroke-width:1"></rect>
                   <title>path</title>
            <text x="226" y="723.5" font-family="monospace" font-size="13" fill="#222">
                <tspan x="226" y="723.5">path</tspan>
            </text>
                   
                   
                </g>
                <g>
                   <rect x="211" y="752" width="84.6" height="30" rx="2" ry="2" style="fill:#90caf9; stroke:#444; stroke-width:1"></rect>
                   <title>handler</title>
            <text x="226" y="772" font-family="monospace" font-size="13" fill="#222">
                <tspan x="226" y="772">handler</tspan>
            </text>
                   
                   
                </g>
                <g>
                   <rect x="211" y="800.5" width="76.8" height="30" rx="2" ry="2" style="fill:#90caf9; stroke:#444; stroke-width:1"></rect>
                   <title>method</title>
            <text x="226" y="820.5" font-family="monospace" font-size="13" fill="#222">
                <tspan x="226" y="820.5">method</tspan>
            </text>
                   
                   
                </g><g>
            <rect x="204" y="864" width="161.39999999999998" height="30" rx="3" ry="3" style="fill:#ce93d8; stroke:#444; stroke-width:1"></rect>                
            <polygon points="174,879 204,849 234,879 204,909" style="fill:#ce93d8; stroke:#444; stroke-width:1"></polygon>
            <title>(path.params)</title>
            <text x="249" y="884" font-family="monospace" font-size="13" fill="#222">
                <tspan x="249" y="884">(path.params)</tspan>
            </text>
            
            <text x="196.2" y="884" font-family="monospace" font-size="13" fill="#222">if</text> <text x="211.8" y="910.95" font-family="monospace" font-size="13" fill="#222">+</text> 
        </g>
                <g>
                   <rect x="224" y="919" width="310.8" height="30" rx="3" ry="3" style="fill:#90caf9; stroke:#444; stroke-width:1"></rect>
                   <title>const matches = pathname.match(path)</title>
            <text x="239" y="939" font-family="monospace" font-size="13" fill="#222">
                <tspan x="239" y="939">const matches = pathname.match(path)</tspan>
            </text>
                   
                   
                </g><g>
            <rect x="254" y="982.5" width="130.2" height="30" rx="3" ry="3" style="fill:#ce93d8; stroke:#444; stroke-width:1"></rect>                
            <polygon points="224,997.5 254,967.5 284,997.5 254,1027.5" style="fill:#ce93d8; stroke:#444; stroke-width:1"></polygon>
            <title>(matches)</title>
            <text x="299" y="1002.5" font-family="monospace" font-size="13" fill="#222">
                <tspan x="299" y="1002.5">(matches)</tspan>
            </text>
            
            <text x="246.2" y="1002.5" font-family="monospace" font-size="13" fill="#222">if</text> <text x="261.8" y="1029.45" font-family="monospace" font-size="13" fill="#222">+</text> 
        </g>
                <g>
                   <rect x="274" y="1037.5" width="178.2" height="30" rx="3" ry="3" style="fill:#90caf9; stroke:#444; stroke-width:1"></rect>
                   <title>let [...] = matches</title>
            <text x="289" y="1057.5" font-family="monospace" font-size="13" fill="#222">
                <tspan x="289" y="1057.5">let [...] = matches</tspan>
            </text>
                   
                   
                </g>
                <g>
                   <rect x="311" y="1086" width="69" height="30" rx="3" ry="3" style="fill:#90caf9; stroke:#444; stroke-width:1"></rect>
                   <title>lists</title>
            <text x="326" y="1106" font-family="monospace" font-size="13" fill="#222">
                <tspan x="326" y="1106">lists</tspan>
            </text>
                   
                   
                </g>
                <g>
                   <rect x="274" y="1134.5" width="349.8" height="30" rx="3" ry="3" style="fill:#90caf9; stroke:#444; stroke-width:1"></rect>
                   <title>req.params = path.params.reduce(*(), {*})</title>
            <text x="289" y="1154.5" font-family="monospace" font-size="13" fill="#222">
                <tspan x="289" y="1154.5">req.params = path.params.reduce(*(), {*})</tspan>
            </text>
                   
                   
                </g>
            <g>
                <rect x="311" y="1183" width="213.79999999999998" height="30" style="fill:#a5d6a7; stroke:#444; stroke-width:1"></rect>
                    
                <line x1="321" y1="1183" x2="321" y2="1213" style="fill:#a5d6a7; stroke:#444; stroke-width:1"></line>
                <line x1="514.8" y1="1183" x2="514.8" y2="1213" style="fill:#a5d6a7; stroke:#444; stroke-width:1"></line>
             
                <title>(memo, arg, index) =&gt;</title>
            <text x="336" y="1203" font-family="monospace" font-size="13" fill="#222">
                <tspan x="336" y="1203">(memo, arg, index) =&gt;</tspan>
            </text>
                
            </g>
                <g>
                   <rect x="348" y="1231.5" width="217.2" height="30" rx="3" ry="3" style="fill:#90caf9; stroke:#444; stroke-width:1"></rect>
                   <title>memo[arg] = lists[index]</title>
            <text x="363" y="1251.5" font-family="monospace" font-size="13" fill="#222">
                <tspan x="363" y="1251.5">memo[arg] = lists[index]</tspan>
            </text>
                   
                   
                </g>
                <g>
                   <rect x="348" y="1280" width="61.2" height="30" rx="3" ry="3" style="fill:#90caf9; stroke:#444; stroke-width:1"></rect>
                   <title>memo</title>
            <text x="363" y="1300" font-family="monospace" font-size="13" fill="#222">
                <tspan x="363" y="1300">memo</tspan>
            </text>
                   
                   
                </g>
            <g>
                <rect x="274" y="1328.5" width="217.2" height="30" rx="3" ry="3" style="fill:#90caf9; stroke:#444; stroke-width:1"></rect>
                
                <line x1="491.2" y1="1338.5" x2="496.2" y2="1338.5" style="fill:#a5d6a7; stroke:#444; stroke-width:1"></line>
                
                <line x1="491.2" y1="1348.5" x2="496.2" y2="1348.5" style="fill:#a5d6a7; stroke:#444; stroke-width:1"></line>

                <path d="M496.2, 1332.5 L512.2, 1343.5 L496.2, 1354.5 Z" fill="#a5d6a7" stroke="#444" stroke-width="1"></path>
                             
                <title>return handler(req, res)</title>
            <text x="289" y="1348.5" font-family="monospace" font-size="13" fill="#222">
                <tspan x="289" y="1348.5">return handler(req, res)</tspan>
            </text>
                
            </g><g>
            <rect x="204" y="1393.5" width="473.4" height="30" rx="3" ry="3" style="fill:#ce93d8; stroke:#444; stroke-width:1"></rect>                
            <polygon points="174,1408.5 204,1378.5 234,1408.5 204,1438.5" style="fill:#ce93d8; stroke:#444; stroke-width:1"></polygon>
            <title>((pathname === path || path === '*') &amp;&amp; (requestMethod === method || method === 'all'))</title>
            <text x="249" y="1413.5" font-family="monospace" font-size="13" fill="#222">
                <tspan x="249" y="1413.5">((pathname === path || path === '*') &amp;&amp; (requestMe...</tspan>
            </text>
            
            <text x="196.2" y="1413.5" font-family="monospace" font-size="13" fill="#222">if</text> <text x="211.8" y="1440.45" font-family="monospace" font-size="13" fill="#222">+</text> 
        </g>
            <g>
                <rect x="224" y="1448.5" width="217.2" height="30" rx="3" ry="3" style="fill:#90caf9; stroke:#444; stroke-width:1"></rect>
                
                <line x1="441.2" y1="1458.5" x2="446.2" y2="1458.5" style="fill:#a5d6a7; stroke:#444; stroke-width:1"></line>
                
                <line x1="441.2" y1="1468.5" x2="446.2" y2="1468.5" style="fill:#a5d6a7; stroke:#444; stroke-width:1"></line>

                <path d="M446.2, 1452.5 L462.2, 1463.5 L446.2, 1474.5 Z" fill="#a5d6a7" stroke="#444" stroke-width="1"></path>
                             
                <title>return handler(req, res)</title>
            <text x="239" y="1468.5" font-family="monospace" font-size="13" fill="#222">
                <tspan x="239" y="1468.5">return handler(req, res)</tspan>
            </text>
                
            </g>
                <g>
                   <rect x="124" y="1498.5" width="240.6" height="30" rx="2" ry="2" style="fill:#C5E1A5; stroke:#444; stroke-width:1"></rect>
                   <title>requestMethod.toUpperCase()</title>
            <text x="139" y="1518.5" font-family="monospace" font-size="13" fill="#222">
                <tspan x="139" y="1518.5">requestMethod.toUpperCase()</tspan>
            </text>
                   
                   
                </g>
                <g>
                   <rect x="124" y="1547" width="92.4" height="30" rx="3" ry="3" style="fill:#90caf9; stroke:#444; stroke-width:1"></rect>
                   <title>pathname</title>
            <text x="139" y="1567" font-family="monospace" font-size="13" fill="#222">
                <tspan x="139" y="1567">pathname</tspan>
            </text>
                   
                   
                </g>
                <g>
                   <rect x="124" y="1595.5" width="443.4" height="30" rx="2" ry="2" style="fill:#C5E1A5; stroke:#444; stroke-width:1"></rect>
                   <title>res.end(`Cannot ${requestMethod.toUpperCase()} ${pathname}`)</title>
            <text x="139" y="1615.5" font-family="monospace" font-size="13" fill="#222">
                <tspan x="139" y="1615.5">res.end(`Cannot ${requestMethod.toUpperCase()} ${p...</tspan>
            </text>
                   
                   
                </g>
                <g>
                   <rect x="87" y="1644" width="147" height="30" rx="3" ry="3" style="fill:#90caf9; stroke:#444; stroke-width:1"></rect>
                   <title>app.routes = []</title>
            <text x="102" y="1664" font-family="monospace" font-size="13" fill="#222">
                <tspan x="102" y="1664">app.routes = []</tspan>
            </text>
                   
                   
                </g>
                <g>
                   <rect x="87" y="1692.5" width="279.6" height="30" rx="2" ry="2" style="fill:#C5E1A5; stroke:#444; stroke-width:1"></rect>
                   <title>[...methods, 'all'].forEach(*())</title>
            <text x="102" y="1712.5" font-family="monospace" font-size="13" fill="#222">
                <tspan x="102" y="1712.5">[...methods, 'all'].forEach(*())</tspan>
            </text>
                   
                   
                </g>
            <g>
                <rect x="124" y="1741" width="135.8" height="30" style="fill:#a5d6a7; stroke:#444; stroke-width:1"></rect>
                    
                <line x1="134" y1="1741" x2="134" y2="1771" style="fill:#a5d6a7; stroke:#444; stroke-width:1"></line>
                <line x1="249.8" y1="1741" x2="249.8" y2="1771" style="fill:#a5d6a7; stroke:#444; stroke-width:1"></line>
             
                <title>(method) =&gt;</title>
            <text x="149" y="1761" font-family="monospace" font-size="13" fill="#222">
                <tspan x="149" y="1761">(method) =&gt;</tspan>
            </text>
                
            </g>
            <g>
                <rect x="161" y="1789.5" width="338.59999999999997" height="30" style="fill:#a5d6a7; stroke:#444; stroke-width:1"></rect>
                    
                <line x1="171" y1="1789.5" x2="171" y2="1819.5" style="fill:#a5d6a7; stroke:#444; stroke-width:1"></line>
                <line x1="489.59999999999997" y1="1789.5" x2="489.59999999999997" y2="1819.5" style="fill:#a5d6a7; stroke:#444; stroke-width:1"></line>
             
                <title>app[method] = function(path, handler)</title>
            <text x="186" y="1809.5" font-family="monospace" font-size="13" fill="#222">
                <tspan x="186" y="1809.5">app[method] = function(path, handler)</tspan>
            </text>
                
            </g>
                <g>
                   <rect x="198" y="1838" width="147" height="30" rx="3" ry="3" style="fill:#90caf9; stroke:#444; stroke-width:1"></rect>
                   <title>let params = []</title>
            <text x="213" y="1858" font-family="monospace" font-size="13" fill="#222">
                <tspan x="213" y="1858">let params = []</tspan>
            </text>
                   
                   
                </g><g>
            <rect x="228" y="1901.5" width="216" height="30" rx="3" ry="3" style="fill:#ce93d8; stroke:#444; stroke-width:1"></rect>                
            <polygon points="198,1916.5 228,1886.5 258,1916.5 228,1946.5" style="fill:#ce93d8; stroke:#444; stroke-width:1"></polygon>
            <title>(path.includes(':'))</title>
            <text x="273" y="1921.5" font-family="monospace" font-size="13" fill="#222">
                <tspan x="273" y="1921.5">(path.includes(':'))</tspan>
            </text>
            
            <text x="220.2" y="1921.5" font-family="monospace" font-size="13" fill="#222">if</text> <text x="235.8" y="1948.45" font-family="monospace" font-size="13" fill="#222">+</text> 
        </g>
                <g>
                   <rect x="248" y="1956.5" width="326.4" height="30" rx="3" ry="3" style="fill:#90caf9; stroke:#444; stroke-width:1"></rect>
                   <title>path = path.replace(/:([^\/]*)/g, *())</title>
            <text x="263" y="1976.5" font-family="monospace" font-size="13" fill="#222">
                <tspan x="263" y="1976.5">path = path.replace(/:([^\/]*)/g, *())</tspan>
            </text>
                   
                   
                </g>
            <g>
                <rect x="285" y="2005" width="128" height="30" style="fill:#a5d6a7; stroke:#444; stroke-width:1"></rect>
                    
                <line x1="295" y1="2005" x2="295" y2="2035" style="fill:#a5d6a7; stroke:#444; stroke-width:1"></line>
                <line x1="403" y1="2005" x2="403" y2="2035" style="fill:#a5d6a7; stroke:#444; stroke-width:1"></line>
             
                <title>function()</title>
            <text x="310" y="2025" font-family="monospace" font-size="13" fill="#222">
                <tspan x="310" y="2025">function()</tspan>
            </text>
                
            </g>
                <g>
                   <rect x="322" y="2053.5" width="225" height="30" rx="2" ry="2" style="fill:#C5E1A5; stroke:#444; stroke-width:1"></rect>
                   <title>params.push(arguments[1])</title>
            <text x="337" y="2073.5" font-family="monospace" font-size="13" fill="#222">
                <tspan x="337" y="2073.5">params.push(arguments[1])</tspan>
            </text>
                   
                   
                </g>
            <g>
                <rect x="322" y="2102" width="162.6" height="30" rx="3" ry="3" style="fill:#90caf9; stroke:#444; stroke-width:1"></rect>
                
                <line x1="484.6" y1="2112" x2="489.6" y2="2112" style="fill:#a5d6a7; stroke:#444; stroke-width:1"></line>
                
                <line x1="484.6" y1="2122" x2="489.6" y2="2122" style="fill:#a5d6a7; stroke:#444; stroke-width:1"></line>

                <path d="M489.6, 2106 L505.6, 2117 L489.6, 2128 Z" fill="#a5d6a7" stroke="#444" stroke-width="1"></path>
                             
                <title>return '([^\/]*)'</title>
            <text x="337" y="2122" font-family="monospace" font-size="13" fill="#222">
                <tspan x="337" y="2122">return '([^\/]*)'</tspan>
            </text>
                
            </g>
                <g>
                   <rect x="248" y="2150.5" width="178.2" height="30" rx="3" ry="3" style="fill:#90caf9; stroke:#444; stroke-width:1"></rect>
                   <title>path = RegExp(path)</title>
            <text x="263" y="2170.5" font-family="monospace" font-size="13" fill="#222">
                <tspan x="263" y="2170.5">path = RegExp(path)</tspan>
            </text>
                   
                   
                </g>
                <g>
                   <rect x="248" y="2199" width="186" height="30" rx="3" ry="3" style="fill:#90caf9; stroke:#444; stroke-width:1"></rect>
                   <title>path.params = params</title>
            <text x="263" y="2219" font-family="monospace" font-size="13" fill="#222">
                <tspan x="263" y="2219">path.params = params</tspan>
            </text>
                   
                   
                </g>
                <g>
                   <rect x="198" y="2249" width="147" height="30" rx="3" ry="3" style="fill:#90caf9; stroke:#444; stroke-width:1"></rect>
                   <title>let layer = {*}</title>
            <text x="213" y="2269" font-family="monospace" font-size="13" fill="#222">
                <tspan x="213" y="2269">let layer = {*}</tspan>
            </text>
                   
                   
                </g>
                <g>
                   <rect x="235" y="2297.5" width="61.2" height="30" rx="2" ry="2" style="fill:#90caf9; stroke:#444; stroke-width:1"></rect>
                   <title>path</title>
            <text x="250" y="2317.5" font-family="monospace" font-size="13" fill="#222">
                <tspan x="250" y="2317.5">path</tspan>
            </text>
                   
                   
                </g>
                <g>
                   <rect x="235" y="2346" width="76.8" height="30" rx="2" ry="2" style="fill:#90caf9; stroke:#444; stroke-width:1"></rect>
                   <title>method</title>
            <text x="250" y="2366" font-family="monospace" font-size="13" fill="#222">
                <tspan x="250" y="2366">method</tspan>
            </text>
                   
                   
                </g>
                <g>
                   <rect x="235" y="2394.5" width="84.6" height="30" rx="2" ry="2" style="fill:#90caf9; stroke:#444; stroke-width:1"></rect>
                   <title>handler</title>
            <text x="250" y="2414.5" font-family="monospace" font-size="13" fill="#222">
                <tspan x="250" y="2414.5">handler</tspan>
            </text>
                   
                   
                </g>
                <g>
                   <rect x="198" y="2443" width="201.6" height="30" rx="2" ry="2" style="fill:#C5E1A5; stroke:#444; stroke-width:1"></rect>
                   <title>app.routes.push(layer)</title>
            <text x="213" y="2463" font-family="monospace" font-size="13" fill="#222">
                <tspan x="213" y="2463">app.routes.push(layer)</tspan>
            </text>
                   
                   
                </g>
            <g>
                <rect x="87" y="2506.5" width="330.8" height="30" style="fill:#a5d6a7; stroke:#444; stroke-width:1"></rect>
                    
                <line x1="97" y1="2506.5" x2="97" y2="2536.5" style="fill:#a5d6a7; stroke:#444; stroke-width:1"></line>
                <line x1="407.8" y1="2506.5" x2="407.8" y2="2536.5" style="fill:#a5d6a7; stroke:#444; stroke-width:1"></line>
             
                <title>app.listen = function(port, handler)</title>
            <text x="112" y="2526.5" font-family="monospace" font-size="13" fill="#222">
                <tspan x="112" y="2526.5">app.listen = function(port, handler)</tspan>
            </text>
                
            </g>
                <g>
                   <rect x="124" y="2555" width="318.59999999999997" height="30" rx="3" ry="3" style="fill:#90caf9; stroke:#444; stroke-width:1"></rect>
                   <title>const server = http.createServer(app)</title>
            <text x="139" y="2575" font-family="monospace" font-size="13" fill="#222">
                <tspan x="139" y="2575">const server = http.createServer(app)</tspan>
            </text>
                   
                   
                </g>
                <g>
                   <rect x="124" y="2603.5" width="248.4" height="30" rx="2" ry="2" style="fill:#C5E1A5; stroke:#444; stroke-width:1"></rect>
                   <title>server.listen(port, handler)</title>
            <text x="139" y="2623.5" font-family="monospace" font-size="13" fill="#222">
                <tspan x="139" y="2623.5">server.listen(port, handler)</tspan>
            </text>
                   
                   
                </g>
            <g>
                <rect x="87" y="2652" width="108" height="30" rx="3" ry="3" style="fill:#90caf9; stroke:#444; stroke-width:1"></rect>
                
                <line x1="195" y1="2662" x2="200" y2="2662" style="fill:#a5d6a7; stroke:#444; stroke-width:1"></line>
                
                <line x1="195" y1="2672" x2="200" y2="2672" style="fill:#a5d6a7; stroke:#444; stroke-width:1"></line>

                <path d="M200, 2656 L216, 2667 L200, 2678 Z" fill="#a5d6a7" stroke="#444" stroke-width="1"></path>
                             
                <title>return app</title>
            <text x="102" y="2672" font-family="monospace" font-size="13" fill="#222">
                <tspan x="102" y="2672">return app</tspan>
            </text>
                
            </g>
                <g>
                   <rect x="50" y="2700.5" width="248.4" height="30" rx="3" ry="3" style="fill:#90caf9; stroke:#444; stroke-width:1"></rect>
                   <title>module.exports = application</title>
            <text x="65" y="2720.5" font-family="monospace" font-size="13" fill="#222">
                <tspan x="65" y="2720.5">module.exports = application</tspan>
            </text>
                   
                   
                </g>
            <g>
               <rect x="25" y="13.75" width="216.6" height="24" style="fill:#fff59d; stroke:#444; stroke-width:1"></rect>
               <circle cx="25" cy="25" r="15" style="fill:#fff59d; stroke:#444; stroke-width:1"></circle>
               <title>Program: source module</title>
            <text x="55" y="30" font-family="monospace" font-size="13" fill="#222">
                <tspan x="55" y="30">Program: source module</tspan>
            </text>
            </g>
            <g>
               <path d="M25, 40 L25 76 Q25 80
                29 80
                L42 80 " style="fill:none; stroke:#444; stroke-width:1"></path>
               <path d="M42, 77 L50, 80 L42, 83 Z" fill="#333"></path>
            </g>
            <g>
               <path d="M25, 40 L25 124.5 Q25 128.5
                29 128.5
                L42 128.5 " style="fill:none; stroke:#444; stroke-width:1"></path>
               <path d="M42, 125.5 L50, 128.5 L42, 131.5 Z" fill="#333"></path>
            </g>
            <g>
               <path d="M25, 40 L25 173 Q25 177
                29 177
                L42 177 " style="fill:none; stroke:#444; stroke-width:1"></path>
               <path d="M42, 174 L50, 177 L42, 180 Z" fill="#333"></path>
            </g>
            <g>
               <path d="M25, 40 L25 236.5 Q25 240.5
                29 240.5
                L42 240.5 " style="fill:none; stroke:#444; stroke-width:1"></path>
               <path d="M42, 237.5 L50, 240.5 L42, 243.5 Z" fill="#333"></path>
            </g>
            <g>
               <path d="M68.5, 255.5 L68.5 285 Q68.5 289
                72.5 289
                L79 289 " style="fill:none; stroke:#444; stroke-width:1"></path>
               <path d="M79, 286 L87, 289 L79, 292 Z" fill="#333"></path>
            </g>
            <g>
               <path d="M105.5, 304 L105.5 333.5 Q105.5 337.5
                109.5 337.5
                L116 337.5 " style="fill:none; stroke:#444; stroke-width:1"></path>
               <path d="M116, 334.5 L124, 337.5 L116, 340.5 Z" fill="#333"></path>
            </g>
            <g>
               <path d="M142.5, 352.5 L142.5 382 Q142.5 386
                146.5 386
                L161 386 " style="fill:none; stroke:#444; stroke-width:1"></path>
               false
            </g>
            <g>
               <path d="M105.5, 304 L105.5 430.5 Q105.5 434.5
                109.5 434.5
                L116 434.5 " style="fill:none; stroke:#444; stroke-width:1"></path>
               <path d="M116, 431.5 L124, 434.5 L116, 437.5 Z" fill="#333"></path>
            </g>
            <g>
               <path d="M105.5, 304 L105.5 514 Q105.5 518
                109.5 518
                L116 518 " style="fill:none; stroke:#444; stroke-width:1"></path>
               <path d="M116, 515 L124, 518 L116, 521 Z" fill="#333"></path>
            </g>
            <g>
               <path d="M154, 548 L154 569 Q154 573
                158 573
                L166 573 " style="fill:none; stroke:#444; stroke-width:1"></path>
               <path d="M166, 570 L174, 573 L166, 576 Z" fill="#333"></path>
            </g>
            <g>
               <path d="M154, 548 L154 617.5 Q154 621.5
                158 621.5
                L166 621.5 " style="fill:none; stroke:#444; stroke-width:1"></path>
               <path d="M166, 618.5 L174, 621.5 L166, 624.5 Z" fill="#333"></path>
            </g>
            <g>
               <path d="M154, 548 L154 666 Q154 670
                158 670
                L166 670 " style="fill:none; stroke:#444; stroke-width:1"></path>
               <path d="M166, 667 L174, 670 L166, 673 Z" fill="#333"></path>
            </g>
            <g>
               <path d="M192.5, 685 L192.5 714.5 Q192.5 718.5
                196.5 718.5
                L211 718.5 " style="fill:none; stroke:#444; stroke-width:1"></path>
               false
            </g>
            <g>
               <path d="M192.5, 685 L192.5 763 Q192.5 767
                196.5 767
                L211 767 " style="fill:none; stroke:#444; stroke-width:1"></path>
               false
            </g>
            <g>
               <path d="M192.5, 685 L192.5 811.5 Q192.5 815.5
                196.5 815.5
                L211 815.5 " style="fill:none; stroke:#444; stroke-width:1"></path>
               false
            </g>
            <g>
               <path d="M154, 548 L154 875 Q154 879
                158 879
                L166 879 " style="fill:none; stroke:#444; stroke-width:1"></path>
               <path d="M166, 876 L174, 879 L166, 882 Z" fill="#333"></path>
            </g>
            <g>
               <path d="M204, 909 L204 930 Q204 934
                208 934
                L216 934 " style="fill:none; stroke:#444; stroke-width:1"></path>
               <path d="M216, 931 L224, 934 L216, 937 Z" fill="#333"></path>
            </g>
            <g>
               <path d="M204, 909 L204 993.5 Q204 997.5
                208 997.5
                L216 997.5 " style="fill:none; stroke:#444; stroke-width:1"></path>
               <path d="M216, 994.5 L224, 997.5 L216, 1000.5 Z" fill="#333"></path>
            </g>
            <g>
               <path d="M254, 1027.5 L254 1048.5 Q254 1052.5
                258 1052.5
                L266 1052.5 " style="fill:none; stroke:#444; stroke-width:1"></path>
               <path d="M266, 1049.5 L274, 1052.5 L266, 1055.5 Z" fill="#333"></path>
            </g>
            <g>
               <path d="M292.5, 1067.5 L292.5 1097 Q292.5 1101
                296.5 1101
                L303 1101 " style="fill:none; stroke:#444; stroke-width:1"></path>
               <path d="M303, 1098 L311, 1101 L303, 1104 Z" fill="#333"></path>
            </g>
            <g>
               <path d="M254, 1027.5 L254 1145.5 Q254 1149.5
                258 1149.5
                L266 1149.5 " style="fill:none; stroke:#444; stroke-width:1"></path>
               <path d="M266, 1146.5 L274, 1149.5 L266, 1152.5 Z" fill="#333"></path>
            </g>
            <g>
               <path d="M292.5, 1164.5 L292.5 1194 Q292.5 1198
                296.5 1198
                L311 1198 " style="fill:none; stroke:#444; stroke-width:1"></path>
               false
            </g>
            <g>
               <path d="M329.5, 1213 L329.5 1242.5 Q329.5 1246.5
                333.5 1246.5
                L340 1246.5 " style="fill:none; stroke:#444; stroke-width:1"></path>
               <path d="M340, 1243.5 L348, 1246.5 L340, 1249.5 Z" fill="#333"></path>
            </g>
            <g>
               <path d="M329.5, 1213 L329.5 1291 Q329.5 1295
                333.5 1295
                L340 1295 " style="fill:none; stroke:#444; stroke-width:1"></path>
               <path d="M340, 1292 L348, 1295 L340, 1298 Z" fill="#333"></path>
            </g>
            <g>
               <path d="M254, 1027.5 L254 1339.5 Q254 1343.5
                258 1343.5
                L266 1343.5 " style="fill:none; stroke:#444; stroke-width:1"></path>
               <path d="M266, 1340.5 L274, 1343.5 L266, 1346.5 Z" fill="#333"></path>
            </g>
            <g>
               <path d="M154, 548 L154 1404.5 Q154 1408.5
                158 1408.5
                L166 1408.5 " style="fill:none; stroke:#444; stroke-width:1"></path>
               <path d="M166, 1405.5 L174, 1408.5 L166, 1411.5 Z" fill="#333"></path>
            </g>
            <g>
               <path d="M204, 1438.5 L204 1459.5 Q204 1463.5
                208 1463.5
                L216 1463.5 " style="fill:none; stroke:#444; stroke-width:1"></path>
               <path d="M216, 1460.5 L224, 1463.5 L216, 1466.5 Z" fill="#333"></path>
            </g>
            <g>
               <path d="M462.2, 1463.5 L693.4 1463.5  Q697.4 1463.5
                697.4 1459.5
                L697.4 476 Q697.4 468
                693.4 468
                L162 468  Q154 468
                154 472
                L154 480" style="fill:none; stroke:#444; stroke-width:1"></path>
               <path d="M151, 480 L154, 488 L157, 480 Z" fill="#333"></path>
            </g>
            <g>
               <path d="M105.5, 304 L105.5 1509.5 Q105.5 1513.5
                109.5 1513.5
                L116 1513.5 " style="fill:none; stroke:#444; stroke-width:1"></path>
               <path d="M116, 1510.5 L124, 1513.5 L116, 1516.5 Z" fill="#333"></path>
            </g>
            <g>
               <path d="M105.5, 304 L105.5 1558 Q105.5 1562
                109.5 1562
                L116 1562 " style="fill:none; stroke:#444; stroke-width:1"></path>
               <path d="M116, 1559 L124, 1562 L116, 1565 Z" fill="#333"></path>
            </g>
            <g>
               <path d="M105.5, 304 L105.5 1606.5 Q105.5 1610.5
                109.5 1610.5
                L116 1610.5 " style="fill:none; stroke:#444; stroke-width:1"></path>
               <path d="M116, 1607.5 L124, 1610.5 L116, 1613.5 Z" fill="#333"></path>
            </g>
            <g>
               <path d="M68.5, 255.5 L68.5 1655 Q68.5 1659
                72.5 1659
                L79 1659 " style="fill:none; stroke:#444; stroke-width:1"></path>
               <path d="M79, 1656 L87, 1659 L79, 1662 Z" fill="#333"></path>
            </g>
            <g>
               <path d="M68.5, 255.5 L68.5 1703.5 Q68.5 1707.5
                72.5 1707.5
                L79 1707.5 " style="fill:none; stroke:#444; stroke-width:1"></path>
               <path d="M79, 1704.5 L87, 1707.5 L79, 1710.5 Z" fill="#333"></path>
            </g>
            <g>
               <path d="M105.5, 1722.5 L105.5 1752 Q105.5 1756
                109.5 1756
                L124 1756 " style="fill:none; stroke:#444; stroke-width:1"></path>
               false
            </g>
            <g>
               <path d="M142.5, 1771 L142.5 1800.5 Q142.5 1804.5
                146.5 1804.5
                L153 1804.5 " style="fill:none; stroke:#444; stroke-width:1"></path>
               <path d="M153, 1801.5 L161, 1804.5 L153, 1807.5 Z" fill="#333"></path>
            </g>
            <g>
               <path d="M179.5, 1819.5 L179.5 1849 Q179.5 1853
                183.5 1853
                L190 1853 " style="fill:none; stroke:#444; stroke-width:1"></path>
               <path d="M190, 1850 L198, 1853 L190, 1856 Z" fill="#333"></path>
            </g>
            <g>
               <path d="M179.5, 1819.5 L179.5 1912.5 Q179.5 1916.5
                183.5 1916.5
                L190 1916.5 " style="fill:none; stroke:#444; stroke-width:1"></path>
               <path d="M190, 1913.5 L198, 1916.5 L190, 1919.5 Z" fill="#333"></path>
            </g>
            <g>
               <path d="M228, 1946.5 L228 1967.5 Q228 1971.5
                232 1971.5
                L240 1971.5 " style="fill:none; stroke:#444; stroke-width:1"></path>
               <path d="M240, 1968.5 L248, 1971.5 L240, 1974.5 Z" fill="#333"></path>
            </g>
            <g>
               <path d="M266.5, 1986.5 L266.5 2016 Q266.5 2020
                270.5 2020
                L285 2020 " style="fill:none; stroke:#444; stroke-width:1"></path>
               false
            </g>
            <g>
               <path d="M303.5, 2035 L303.5 2064.5 Q303.5 2068.5
                307.5 2068.5
                L314 2068.5 " style="fill:none; stroke:#444; stroke-width:1"></path>
               <path d="M314, 2065.5 L322, 2068.5 L314, 2071.5 Z" fill="#333"></path>
            </g>
            <g>
               <path d="M303.5, 2035 L303.5 2113 Q303.5 2117
                307.5 2117
                L314 2117 " style="fill:none; stroke:#444; stroke-width:1"></path>
               <path d="M314, 2114 L322, 2117 L314, 2120 Z" fill="#333"></path>
            </g>
            <g>
               <path d="M228, 1946.5 L228 2161.5 Q228 2165.5
                232 2165.5
                L240 2165.5 " style="fill:none; stroke:#444; stroke-width:1"></path>
               <path d="M240, 2162.5 L248, 2165.5 L240, 2168.5 Z" fill="#333"></path>
            </g>
            <g>
               <path d="M228, 1946.5 L228 2210 Q228 2214
                232 2214
                L240 2214 " style="fill:none; stroke:#444; stroke-width:1"></path>
               <path d="M240, 2211 L248, 2214 L240, 2217 Z" fill="#333"></path>
            </g>
            <g>
               <path d="M179.5, 1819.5 L179.5 2260 Q179.5 2264
                183.5 2264
                L190 2264 " style="fill:none; stroke:#444; stroke-width:1"></path>
               <path d="M190, 2261 L198, 2264 L190, 2267 Z" fill="#333"></path>
            </g>
            <g>
               <path d="M216.5, 2279 L216.5 2308.5 Q216.5 2312.5
                220.5 2312.5
                L235 2312.5 " style="fill:none; stroke:#444; stroke-width:1"></path>
               false
            </g>
            <g>
               <path d="M216.5, 2279 L216.5 2357 Q216.5 2361
                220.5 2361
                L235 2361 " style="fill:none; stroke:#444; stroke-width:1"></path>
               false
            </g>
            <g>
               <path d="M216.5, 2279 L216.5 2405.5 Q216.5 2409.5
                220.5 2409.5
                L235 2409.5 " style="fill:none; stroke:#444; stroke-width:1"></path>
               false
            </g>
            <g>
               <path d="M179.5, 1819.5 L179.5 2454 Q179.5 2458
                183.5 2458
                L190 2458 " style="fill:none; stroke:#444; stroke-width:1"></path>
               <path d="M190, 2455 L198, 2458 L190, 2461 Z" fill="#333"></path>
            </g>
            <g>
               <path d="M68.5, 255.5 L68.5 2517.5 Q68.5 2521.5
                72.5 2521.5
                L79 2521.5 " style="fill:none; stroke:#444; stroke-width:1"></path>
               <path d="M79, 2518.5 L87, 2521.5 L79, 2524.5 Z" fill="#333"></path>
            </g>
            <g>
               <path d="M105.5, 2536.5 L105.5 2566 Q105.5 2570
                109.5 2570
                L116 2570 " style="fill:none; stroke:#444; stroke-width:1"></path>
               <path d="M116, 2567 L124, 2570 L116, 2573 Z" fill="#333"></path>
            </g>
            <g>
               <path d="M105.5, 2536.5 L105.5 2614.5 Q105.5 2618.5
                109.5 2618.5
                L116 2618.5 " style="fill:none; stroke:#444; stroke-width:1"></path>
               <path d="M116, 2615.5 L124, 2618.5 L116, 2621.5 Z" fill="#333"></path>
            </g>
            <g>
               <path d="M68.5, 255.5 L68.5 2663 Q68.5 2667
                72.5 2667
                L79 2667 " style="fill:none; stroke:#444; stroke-width:1"></path>
               <path d="M79, 2664 L87, 2667 L79, 2670 Z" fill="#333"></path>
            </g>
            <g>
               <path d="M25, 40 L25 2711.5 Q25 2715.5
                29 2715.5
                L42 2715.5 " style="fill:none; stroke:#444; stroke-width:1"></path>
               <path d="M42, 2712.5 L50, 2715.5 L42, 2718.5 Z" fill="#333"></path>
            </g>
            </svg>