
                <svg xmlns="http://www.w3.org/2000/svg" xmlns:xlink="http://www.w3.org/1999/xlink" width="703" height="1815" shape-rendering="optimizeSpeed">
                
                <g>
                   <rect x="50" y="65" width="232.79999999999998" height="30" rx="3" ry="3" style="fill:#90caf9; stroke:#444; stroke-width:1"></rect>
                   <title>const url = require('url')</title>
            <text x="65" y="85" font-family="monospace" font-size="13" fill="#222">
                <tspan x="65" y="85">const url = require('url')</tspan>
            </text>
                   
                   
                </g>
                <g>
                   <rect x="50" y="113.5" width="248.4" height="30" rx="3" ry="3" style="fill:#90caf9; stroke:#444; stroke-width:1"></rect>
                   <title>const http = require('http')</title>
            <text x="65" y="133.5" font-family="monospace" font-size="13" fill="#222">
                <tspan x="65" y="133.5">const http = require('http')</tspan>
            </text>
                   
                   
                </g>
                <g>
                   <rect x="50" y="162" width="295.2" height="30" rx="3" ry="3" style="fill:#90caf9; stroke:#444; stroke-width:1"></rect>
                   <title>const methods = require('methods')</title>
            <text x="65" y="182" font-family="monospace" font-size="13" fill="#222">
                <tspan x="65" y="182">const methods = require('methods')</tspan>
            </text>
                   
                   
                </g>
            <g>
                <rect x="50" y="225.5" width="221.6" height="30" style="fill:#a5d6a7; stroke:#444; stroke-width:1"></rect>
                    
                <line x1="60" y1="225.5" x2="60" y2="255.5" style="fill:#a5d6a7; stroke:#444; stroke-width:1"></line>
                <line x1="261.6" y1="225.5" x2="261.6" y2="255.5" style="fill:#a5d6a7; stroke:#444; stroke-width:1"></line>
             
                <title>function application()</title>
            <text x="75" y="245.5" font-family="monospace" font-size="13" fill="#222">
                <tspan x="75" y="245.5">function application()</tspan>
            </text>
                
            </g>
            <g>
                <rect x="87" y="274" width="198.2" height="30" style="fill:#a5d6a7; stroke:#444; stroke-width:1"></rect>
                    
                <line x1="97" y1="274" x2="97" y2="304" style="fill:#a5d6a7; stroke:#444; stroke-width:1"></line>
                <line x1="275.2" y1="274" x2="275.2" y2="304" style="fill:#a5d6a7; stroke:#444; stroke-width:1"></line>
             
                <title>app = (req, res) =&gt;</title>
            <text x="112" y="294" font-family="monospace" font-size="13" fill="#222">
                <tspan x="112" y="294">app = (req, res) =&gt;</tspan>
            </text>
                
            </g>
                <g>
                   <rect x="124" y="322.5" width="264" height="30" rx="3" ry="3" style="fill:#90caf9; stroke:#444; stroke-width:1"></rect>
                   <title>let {...} = url.parse(req.url)</title>
            <text x="139" y="342.5" font-family="monospace" font-size="13" fill="#222">
                <tspan x="139" y="342.5">let {...} = url.parse(req.url)</tspan>
            </text>
                   
                   
                </g>
                <g>
                   <rect x="161" y="371" width="92.4" height="30" rx="2" ry="2" style="fill:#90caf9; stroke:#444; stroke-width:1"></rect>
                   <title>pathname</title>
            <text x="176" y="391" font-family="monospace" font-size="13" fill="#222">
                <tspan x="176" y="391">pathname</tspan>
            </text>
                   
                   
                </g>
                <g>
                   <rect x="124" y="419.5" width="373.2" height="30" rx="3" ry="3" style="fill:#90caf9; stroke:#444; stroke-width:1"></rect>
                   <title>let requestMethod = req.method.toLowerCase()</title>
            <text x="139" y="439.5" font-family="monospace" font-size="13" fill="#222">
                <tspan x="139" y="439.5">let requestMethod = req.method.toLowerCase()</tspan>
            </text>
                   
                   
                </g><g>

            <rect x="154" y="503" width="223.79999999999998" height="30" rx="3" ry="3" style="fill:#b39ddb; stroke:#444; stroke-width:1"></rect>
            <polygon points="124,518 154,488 184,518 154,548" style="fill:#b39ddb; stroke:#444; stroke-width:1"></polygon>
                
            <title>i &lt; app.routes.length</title>
            <text x="199" y="523" font-family="monospace" font-size="13" fill="#222">
                <tspan x="199" y="523">i &lt; app.routes.length</tspan>
            </text>
            
            <text x="142.3" y="523" font-family="monospace" font-size="13" fill="#222">for</text>
        </g>
                <g>
                   <rect x="174" y="558" width="53.4" height="30" rx="3" ry="3" style="fill:#90caf9; stroke:#444; stroke-width:1"></rect>
                   <title>i++</title>
            <text x="189" y="578" font-family="monospace" font-size="13" fill="#222">
                <tspan x="189" y="578">i++</tspan>
            </text>
                   
                   
                </g>
                <g>
                   <rect x="174" y="606.5" width="240.6" height="30" rx="3" ry="3" style="fill:#90caf9; stroke:#444; stroke-width:1"></rect>
                   <title>const layer = app.routes[i]</title>
            <text x="189" y="626.5" font-family="monospace" font-size="13" fill="#222">
                <tspan x="189" y="626.5">const layer = app.routes[i]</tspan>
            </text>
                   
                   
                </g>
                <g>
                   <rect x="174" y="655" width="178.2" height="30" rx="3" ry="3" style="fill:#90caf9; stroke:#444; stroke-width:1"></rect>
                   <title>const {...} = layer</title>
            <text x="189" y="675" font-family="monospace" font-size="13" fill="#222">
                <tspan x="189" y="675">const {...} = layer</tspan>
            </text>
                   
                   
                </g>
                <g>
                   <rect x="211" y="703.5" width="61.2" height="30" rx="2" ry="2" style="fill:#90caf9; stroke:#444; stroke-width:1"></rect>
                   <title>path</title>
            <text x="226" y="723.5" font-family="monospace" font-size="13" fill="#222">
                <tspan x="226" y="723.5">path</tspan>
            </text>
                   
                   
                </g>
                <g>
                   <rect x="211" y="752" width="84.6" height="30" rx="2" ry="2" style="fill:#90caf9; stroke:#444; stroke-width:1"></rect>
                   <title>handler</title>
            <text x="226" y="772" font-family="monospace" font-size="13" fill="#222">
                <tspan x="226" y="772">handler</tspan>
            </text>
                   
                   
                </g>
                <g>
                   <rect x="211" y="800.5" width="76.8" height="30" rx="2" ry="2" style="fill:#90caf9; stroke:#444; stroke-width:1"></rect>
                   <title>method</title>
            <text x="226" y="820.5" font-family="monospace" font-size="13" fill="#222">
                <tspan x="226" y="820.5">method</tspan>
            </text>
                   
                   
                </g><g>
            <rect x="204" y="864" width="473.4" height="30" rx="3" ry="3" style="fill:#ce93d8; stroke:#444; stroke-width:1"></rect>                
            <polygon points="174,879 204,849 234,879 204,909" style="fill:#ce93d8; stroke:#444; stroke-width:1"></polygon>
            <title>((pathname === path || path === '*') &amp;&amp; (requestMethod === method || method === 'all'))</title>
            <text x="249" y="884" font-family="monospace" font-size="13" fill="#222">
                <tspan x="249" y="884">((pathname === path || path === '*') &amp;&amp; (requestMe...</tspan>
            </text>
            
            <text x="196.2" y="884" font-family="monospace" font-size="13" fill="#222">if</text> <text x="211.8" y="910.95" font-family="monospace" font-size="13" fill="#222">+</text> 
        </g>
            <g>
                <rect x="224" y="919" width="217.2" height="30" rx="3" ry="3" style="fill:#90caf9; stroke:#444; stroke-width:1"></rect>
                
                <line x1="441.2" y1="929" x2="446.2" y2="929" style="fill:#a5d6a7; stroke:#444; stroke-width:1"></line>
                
                <line x1="441.2" y1="939" x2="446.2" y2="939" style="fill:#a5d6a7; stroke:#444; stroke-width:1"></line>

                <path d="M446.2, 923 L462.2, 934 L446.2, 945 Z" fill="#a5d6a7" stroke="#444" stroke-width="1"></path>
                             
                <title>return handler(req, res)</title>
            <text x="239" y="939" font-family="monospace" font-size="13" fill="#222">
                <tspan x="239" y="939">return handler(req, res)</tspan>
            </text>
                
            </g>
                <g>
                   <rect x="124" y="969" width="240.6" height="30" rx="2" ry="2" style="fill:#C5E1A5; stroke:#444; stroke-width:1"></rect>
                   <title>requestMethod.toUpperCase()</title>
            <text x="139" y="989" font-family="monospace" font-size="13" fill="#222">
                <tspan x="139" y="989">requestMethod.toUpperCase()</tspan>
            </text>
                   
                   
                </g>
                <g>
                   <rect x="124" y="1017.5" width="92.4" height="30" rx="3" ry="3" style="fill:#90caf9; stroke:#444; stroke-width:1"></rect>
                   <title>pathname</title>
            <text x="139" y="1037.5" font-family="monospace" font-size="13" fill="#222">
                <tspan x="139" y="1037.5">pathname</tspan>
            </text>
                   
                   
                </g>
                <g>
                   <rect x="124" y="1066" width="443.4" height="30" rx="2" ry="2" style="fill:#C5E1A5; stroke:#444; stroke-width:1"></rect>
                   <title>res.end(`Cannot ${requestMethod.toUpperCase()} ${pathname}`)</title>
            <text x="139" y="1086" font-family="monospace" font-size="13" fill="#222">
                <tspan x="139" y="1086">res.end(`Cannot ${requestMethod.toUpperCase()} ${p...</tspan>
            </text>
                   
                   
                </g>
                <g>
                   <rect x="87" y="1114.5" width="147" height="30" rx="3" ry="3" style="fill:#90caf9; stroke:#444; stroke-width:1"></rect>
                   <title>app.routes = []</title>
            <text x="102" y="1134.5" font-family="monospace" font-size="13" fill="#222">
                <tspan x="102" y="1134.5">app.routes = []</tspan>
            </text>
                   
                   
                </g>
                <g>
                   <rect x="87" y="1163" width="279.6" height="30" rx="2" ry="2" style="fill:#C5E1A5; stroke:#444; stroke-width:1"></rect>
                   <title>[...methods, 'all'].forEach(*())</title>
            <text x="102" y="1183" font-family="monospace" font-size="13" fill="#222">
                <tspan x="102" y="1183">[...methods, 'all'].forEach(*())</tspan>
            </text>
                   
                   
                </g>
            <g>
                <rect x="124" y="1211.5" width="135.8" height="30" style="fill:#a5d6a7; stroke:#444; stroke-width:1"></rect>
                    
                <line x1="134" y1="1211.5" x2="134" y2="1241.5" style="fill:#a5d6a7; stroke:#444; stroke-width:1"></line>
                <line x1="249.8" y1="1211.5" x2="249.8" y2="1241.5" style="fill:#a5d6a7; stroke:#444; stroke-width:1"></line>
             
                <title>(method) =&gt;</title>
            <text x="149" y="1231.5" font-family="monospace" font-size="13" fill="#222">
                <tspan x="149" y="1231.5">(method) =&gt;</tspan>
            </text>
                
            </g>
            <g>
                <rect x="161" y="1260" width="338.59999999999997" height="30" style="fill:#a5d6a7; stroke:#444; stroke-width:1"></rect>
                    
                <line x1="171" y1="1260" x2="171" y2="1290" style="fill:#a5d6a7; stroke:#444; stroke-width:1"></line>
                <line x1="489.59999999999997" y1="1260" x2="489.59999999999997" y2="1290" style="fill:#a5d6a7; stroke:#444; stroke-width:1"></line>
             
                <title>app[method] = function(path, handler)</title>
            <text x="186" y="1280" font-family="monospace" font-size="13" fill="#222">
                <tspan x="186" y="1280">app[method] = function(path, handler)</tspan>
            </text>
                
            </g>
                <g>
                   <rect x="198" y="1308.5" width="147" height="30" rx="3" ry="3" style="fill:#90caf9; stroke:#444; stroke-width:1"></rect>
                   <title>let layer = {*}</title>
            <text x="213" y="1328.5" font-family="monospace" font-size="13" fill="#222">
                <tspan x="213" y="1328.5">let layer = {*}</tspan>
            </text>
                   
                   
                </g>
                <g>
                   <rect x="235" y="1357" width="61.2" height="30" rx="2" ry="2" style="fill:#90caf9; stroke:#444; stroke-width:1"></rect>
                   <title>path</title>
            <text x="250" y="1377" font-family="monospace" font-size="13" fill="#222">
                <tspan x="250" y="1377">path</tspan>
            </text>
                   
                   
                </g>
                <g>
                   <rect x="235" y="1405.5" width="76.8" height="30" rx="2" ry="2" style="fill:#90caf9; stroke:#444; stroke-width:1"></rect>
                   <title>method</title>
            <text x="250" y="1425.5" font-family="monospace" font-size="13" fill="#222">
                <tspan x="250" y="1425.5">method</tspan>
            </text>
                   
                   
                </g>
                <g>
                   <rect x="235" y="1454" width="84.6" height="30" rx="2" ry="2" style="fill:#90caf9; stroke:#444; stroke-width:1"></rect>
                   <title>handler</title>
            <text x="250" y="1474" font-family="monospace" font-size="13" fill="#222">
                <tspan x="250" y="1474">handler</tspan>
            </text>
                   
                   
                </g>
                <g>
                   <rect x="198" y="1502.5" width="201.6" height="30" rx="2" ry="2" style="fill:#C5E1A5; stroke:#444; stroke-width:1"></rect>
                   <title>app.routes.push(layer)</title>
            <text x="213" y="1522.5" font-family="monospace" font-size="13" fill="#222">
                <tspan x="213" y="1522.5">app.routes.push(layer)</tspan>
            </text>
                   
                   
                </g>
            <g>
                <rect x="87" y="1566" width="330.8" height="30" style="fill:#a5d6a7; stroke:#444; stroke-width:1"></rect>
                    
                <line x1="97" y1="1566" x2="97" y2="1596" style="fill:#a5d6a7; stroke:#444; stroke-width:1"></line>
                <line x1="407.8" y1="1566" x2="407.8" y2="1596" style="fill:#a5d6a7; stroke:#444; stroke-width:1"></line>
             
                <title>app.listen = function(port, handler)</title>
            <text x="112" y="1586" font-family="monospace" font-size="13" fill="#222">
                <tspan x="112" y="1586">app.listen = function(port, handler)</tspan>
            </text>
                
            </g>
                <g>
                   <rect x="124" y="1614.5" width="318.59999999999997" height="30" rx="3" ry="3" style="fill:#90caf9; stroke:#444; stroke-width:1"></rect>
                   <title>const server = http.createServer(app)</title>
            <text x="139" y="1634.5" font-family="monospace" font-size="13" fill="#222">
                <tspan x="139" y="1634.5">const server = http.createServer(app)</tspan>
            </text>
                   
                   
                </g>
                <g>
                   <rect x="124" y="1663" width="248.4" height="30" rx="2" ry="2" style="fill:#C5E1A5; stroke:#444; stroke-width:1"></rect>
                   <title>server.listen(port, handler)</title>
            <text x="139" y="1683" font-family="monospace" font-size="13" fill="#222">
                <tspan x="139" y="1683">server.listen(port, handler)</tspan>
            </text>
                   
                   
                </g>
            <g>
                <rect x="87" y="1711.5" width="108" height="30" rx="3" ry="3" style="fill:#90caf9; stroke:#444; stroke-width:1"></rect>
                
                <line x1="195" y1="1721.5" x2="200" y2="1721.5" style="fill:#a5d6a7; stroke:#444; stroke-width:1"></line>
                
                <line x1="195" y1="1731.5" x2="200" y2="1731.5" style="fill:#a5d6a7; stroke:#444; stroke-width:1"></line>

                <path d="M200, 1715.5 L216, 1726.5 L200, 1737.5 Z" fill="#a5d6a7" stroke="#444" stroke-width="1"></path>
                             
                <title>return app</title>
            <text x="102" y="1731.5" font-family="monospace" font-size="13" fill="#222">
                <tspan x="102" y="1731.5">return app</tspan>
            </text>
                
            </g>
                <g>
                   <rect x="50" y="1760" width="248.4" height="30" rx="3" ry="3" style="fill:#90caf9; stroke:#444; stroke-width:1"></rect>
                   <title>module.exports = application</title>
            <text x="65" y="1780" font-family="monospace" font-size="13" fill="#222">
                <tspan x="65" y="1780">module.exports = application</tspan>
            </text>
                   
                   
                </g>
            <g>
               <rect x="25" y="13.75" width="216.6" height="24" style="fill:#fff59d; stroke:#444; stroke-width:1"></rect>
               <circle cx="25" cy="25" r="15" style="fill:#fff59d; stroke:#444; stroke-width:1"></circle>
               <title>Program: source module</title>
            <text x="55" y="30" font-family="monospace" font-size="13" fill="#222">
                <tspan x="55" y="30">Program: source module</tspan>
            </text>
            </g>
            <g>
               <path d="M25, 40 L25 76 Q25 80
                29 80
                L42 80 " style="fill:none; stroke:#444; stroke-width:1"></path>
               <path d="M42, 77 L50, 80 L42, 83 Z" fill="#333"></path>
            </g>
            <g>
               <path d="M25, 40 L25 124.5 Q25 128.5
                29 128.5
                L42 128.5 " style="fill:none; stroke:#444; stroke-width:1"></path>
               <path d="M42, 125.5 L50, 128.5 L42, 131.5 Z" fill="#333"></path>
            </g>
            <g>
               <path d="M25, 40 L25 173 Q25 177
                29 177
                L42 177 " style="fill:none; stroke:#444; stroke-width:1"></path>
               <path d="M42, 174 L50, 177 L42, 180 Z" fill="#333"></path>
            </g>
            <g>
               <path d="M25, 40 L25 236.5 Q25 240.5
                29 240.5
                L42 240.5 " style="fill:none; stroke:#444; stroke-width:1"></path>
               <path d="M42, 237.5 L50, 240.5 L42, 243.5 Z" fill="#333"></path>
            </g>
            <g>
               <path d="M68.5, 255.5 L68.5 285 Q68.5 289
                72.5 289
                L79 289 " style="fill:none; stroke:#444; stroke-width:1"></path>
               <path d="M79, 286 L87, 289 L79, 292 Z" fill="#333"></path>
            </g>
            <g>
               <path d="M105.5, 304 L105.5 333.5 Q105.5 337.5
                109.5 337.5
                L116 337.5 " style="fill:none; stroke:#444; stroke-width:1"></path>
               <path d="M116, 334.5 L124, 337.5 L116, 340.5 Z" fill="#333"></path>
            </g>
            <g>
               <path d="M142.5, 352.5 L142.5 382 Q142.5 386
                146.5 386
                L161 386 " style="fill:none; stroke:#444; stroke-width:1"></path>
               false
            </g>
            <g>
               <path d="M105.5, 304 L105.5 430.5 Q105.5 434.5
                109.5 434.5
                L116 434.5 " style="fill:none; stroke:#444; stroke-width:1"></path>
               <path d="M116, 431.5 L124, 434.5 L116, 437.5 Z" fill="#333"></path>
            </g>
            <g>
               <path d="M105.5, 304 L105.5 514 Q105.5 518
                109.5 518
                L116 518 " style="fill:none; stroke:#444; stroke-width:1"></path>
               <path d="M116, 515 L124, 518 L116, 521 Z" fill="#333"></path>
            </g>
            <g>
               <path d="M154, 548 L154 569 Q154 573
                158 573
                L166 573 " style="fill:none; stroke:#444; stroke-width:1"></path>
               <path d="M166, 570 L174, 573 L166, 576 Z" fill="#333"></path>
            </g>
            <g>
               <path d="M154, 548 L154 617.5 Q154 621.5
                158 621.5
                L166 621.5 " style="fill:none; stroke:#444; stroke-width:1"></path>
               <path d="M166, 618.5 L174, 621.5 L166, 624.5 Z" fill="#333"></path>
            </g>
            <g>
               <path d="M154, 548 L154 666 Q154 670
                158 670
                L166 670 " style="fill:none; stroke:#444; stroke-width:1"></path>
               <path d="M166, 667 L174, 670 L166, 673 Z" fill="#333"></path>
            </g>
            <g>
               <path d="M192.5, 685 L192.5 714.5 Q192.5 718.5
                196.5 718.5
                L211 718.5 " style="fill:none; stroke:#444; stroke-width:1"></path>
               false
            </g>
            <g>
               <path d="M192.5, 685 L192.5 763 Q192.5 767
                196.5 767
                L211 767 " style="fill:none; stroke:#444; stroke-width:1"></path>
               false
            </g>
            <g>
               <path d="M192.5, 685 L192.5 811.5 Q192.5 815.5
                196.5 815.5
                L211 815.5 " style="fill:none; stroke:#444; stroke-width:1"></path>
               false
            </g>
            <g>
               <path d="M154, 548 L154 875 Q154 879
                158 879
                L166 879 " style="fill:none; stroke:#444; stroke-width:1"></path>
               <path d="M166, 876 L174, 879 L166, 882 Z" fill="#333"></path>
            </g>
            <g>
               <path d="M204, 909 L204 930 Q204 934
                208 934
                L216 934 " style="fill:none; stroke:#444; stroke-width:1"></path>
               <path d="M216, 931 L224, 934 L216, 937 Z" fill="#333"></path>
            </g>
            <g>
               <path d="M462.2, 934 L693.4 934  Q697.4 934
                697.4 930
                L697.4 476 Q697.4 468
                693.4 468
                L162 468  Q154 468
                154 472
                L154 480" style="fill:none; stroke:#444; stroke-width:1"></path>
               <path d="M151, 480 L154, 488 L157, 480 Z" fill="#333"></path>
            </g>
            <g>
               <path d="M105.5, 304 L105.5 980 Q105.5 984
                109.5 984
                L116 984 " style="fill:none; stroke:#444; stroke-width:1"></path>
               <path d="M116, 981 L124, 984 L116, 987 Z" fill="#333"></path>
            </g>
            <g>
               <path d="M105.5, 304 L105.5 1028.5 Q105.5 1032.5
                109.5 1032.5
                L116 1032.5 " style="fill:none; stroke:#444; stroke-width:1"></path>
               <path d="M116, 1029.5 L124, 1032.5 L116, 1035.5 Z" fill="#333"></path>
            </g>
            <g>
               <path d="M105.5, 304 L105.5 1077 Q105.5 1081
                109.5 1081
                L116 1081 " style="fill:none; stroke:#444; stroke-width:1"></path>
               <path d="M116, 1078 L124, 1081 L116, 1084 Z" fill="#333"></path>
            </g>
            <g>
               <path d="M68.5, 255.5 L68.5 1125.5 Q68.5 1129.5
                72.5 1129.5
                L79 1129.5 " style="fill:none; stroke:#444; stroke-width:1"></path>
               <path d="M79, 1126.5 L87, 1129.5 L79, 1132.5 Z" fill="#333"></path>
            </g>
            <g>
               <path d="M68.5, 255.5 L68.5 1174 Q68.5 1178
                72.5 1178
                L79 1178 " style="fill:none; stroke:#444; stroke-width:1"></path>
               <path d="M79, 1175 L87, 1178 L79, 1181 Z" fill="#333"></path>
            </g>
            <g>
               <path d="M105.5, 1193 L105.5 1222.5 Q105.5 1226.5
                109.5 1226.5
                L124 1226.5 " style="fill:none; stroke:#444; stroke-width:1"></path>
               false
            </g>
            <g>
               <path d="M142.5, 1241.5 L142.5 1271 Q142.5 1275
                146.5 1275
                L153 1275 " style="fill:none; stroke:#444; stroke-width:1"></path>
               <path d="M153, 1272 L161, 1275 L153, 1278 Z" fill="#333"></path>
            </g>
            <g>
               <path d="M179.5, 1290 L179.5 1319.5 Q179.5 1323.5
                183.5 1323.5
                L190 1323.5 " style="fill:none; stroke:#444; stroke-width:1"></path>
               <path d="M190, 1320.5 L198, 1323.5 L190, 1326.5 Z" fill="#333"></path>
            </g>
            <g>
               <path d="M216.5, 1338.5 L216.5 1368 Q216.5 1372
                220.5 1372
                L235 1372 " style="fill:none; stroke:#444; stroke-width:1"></path>
               false
            </g>
            <g>
               <path d="M216.5, 1338.5 L216.5 1416.5 Q216.5 1420.5
                220.5 1420.5
                L235 1420.5 " style="fill:none; stroke:#444; stroke-width:1"></path>
               false
            </g>
            <g>
               <path d="M216.5, 1338.5 L216.5 1465 Q216.5 1469
                220.5 1469
                L235 1469 " style="fill:none; stroke:#444; stroke-width:1"></path>
               false
            </g>
            <g>
               <path d="M179.5, 1290 L179.5 1513.5 Q179.5 1517.5
                183.5 1517.5
                L190 1517.5 " style="fill:none; stroke:#444; stroke-width:1"></path>
               <path d="M190, 1514.5 L198, 1517.5 L190, 1520.5 Z" fill="#333"></path>
            </g>
            <g>
               <path d="M68.5, 255.5 L68.5 1577 Q68.5 1581
                72.5 1581
                L79 1581 " style="fill:none; stroke:#444; stroke-width:1"></path>
               <path d="M79, 1578 L87, 1581 L79, 1584 Z" fill="#333"></path>
            </g>
            <g>
               <path d="M105.5, 1596 L105.5 1625.5 Q105.5 1629.5
                109.5 1629.5
                L116 1629.5 " style="fill:none; stroke:#444; stroke-width:1"></path>
               <path d="M116, 1626.5 L124, 1629.5 L116, 1632.5 Z" fill="#333"></path>
            </g>
            <g>
               <path d="M105.5, 1596 L105.5 1674 Q105.5 1678
                109.5 1678
                L116 1678 " style="fill:none; stroke:#444; stroke-width:1"></path>
               <path d="M116, 1675 L124, 1678 L116, 1681 Z" fill="#333"></path>
            </g>
            <g>
               <path d="M68.5, 255.5 L68.5 1722.5 Q68.5 1726.5
                72.5 1726.5
                L79 1726.5 " style="fill:none; stroke:#444; stroke-width:1"></path>
               <path d="M79, 1723.5 L87, 1726.5 L79, 1729.5 Z" fill="#333"></path>
            </g>
            <g>
               <path d="M25, 40 L25 1771 Q25 1775
                29 1775
                L42 1775 " style="fill:none; stroke:#444; stroke-width:1"></path>
               <path d="M42, 1772 L50, 1775 L42, 1778 Z" fill="#333"></path>
            </g>
            </svg>